<?xml version="1.0" standalone="no"?>
<!DOCTYPE svg PUBLIC "-//W3C//DTD SVG 20010904//EN"
 "http://www.w3.org/TR/2001/REC-SVG-20010904/DTD/svg10.dtd">
<svg version="1.0" xmlns="http://www.w3.org/2000/svg"
 width="260.000000pt" height="260.000000pt" viewBox="0 0 260.000000 260.000000"
 preserveAspectRatio="xMidYMid meet">
<metadata>
Created by potrace 1.14, written by Peter Selinger 2001-2017
</metadata>
<g transform="translate(0.000000,260.000000) scale(0.100000,-0.100000)"
fill="#000000" stroke="none">
<path d="M0 1300 l0 -1300 1300 0 1300 0 0 1300 0 1300 -1300 0 -1300 0 0
-1300z m855 228 c38 -62 78 -127 90 -145 l21 -32 89 145 89 144 83 0 83 0 0
-345 0 -345 -75 0 -75 0 -2 222 -3 221 -94 -141 c-52 -78 -95 -142 -97 -142
-2 0 -47 64 -99 142 l-95 143 0 -223 0 -222 -75 0 -75 0 0 345 0 345 83 0 82
0 70 -112z m855 -93 c85 -113 158 -205 163 -205 4 0 7 92 7 205 l0 205 75 0
75 0 -2 -342 -3 -343 -65 0 -65 0 -151 198 c-83 109 -158 206 -167 215 -16 15
-17 1 -17 -201 l0 -218 -72 3 -73 3 -3 343 -2 342 72 0 73 0 155 -205z"/>
</g>
</svg>
